<svg width="276" height="305" viewBox="0 0 276 305" fill="none" xmlns="http://www.w3.org/2000/svg">
<circle cx="119.992" cy="35.7859" r="6.0215" transform="rotate(-11.4402 119.992 35.7859)" fill="#F99D1D" stroke="#F99D1D" stroke-width="1.5"/>
<circle cx="154.844" cy="208.012" r="6.0215" transform="rotate(-11.4402 154.844 208.012)" fill="#F99D1D" stroke="#F99D1D" stroke-width="1.5"/>
<rect x="117.754" y="46.2302" width="8.52867" height="156.131" rx="4.26434" transform="rotate(-11.4402 117.754 46.2302)" fill="#F99D1D" stroke="#F99D1D" stroke-width="1.5"/>
<circle cx="54.8168" cy="93.7946" r="6.0215" transform="rotate(-71.4402 54.8168 93.7946)" fill="#F99D1D" stroke="#F99D1D" stroke-width="1.5"/>
<circle cx="221.395" cy="149.724" r="6.0215" transform="rotate(-71.4402 221.395 149.724)" fill="#F99D1D" stroke="#F99D1D" stroke-width="1.5"/>
<rect x="62.7434" y="100.954" width="8.52867" height="156.131" rx="4.26434" transform="rotate(-71.4402 62.7434 100.954)" fill="#F99D1D" stroke="#F99D1D" stroke-width="1.5"/>
<circle cx="72.2429" cy="179.908" r="6.0215" transform="rotate(-131.44 72.2429 179.908)" fill="#F99D1D" stroke="#F99D1D" stroke-width="1.5"/>
<circle cx="203.969" cy="63.6116" r="6.0215" transform="rotate(-131.44 203.969 63.6116)" fill="#F99D1D" stroke="#F99D1D" stroke-width="1.5"/>
<rect x="82.4066" y="176.623" width="8.52867" height="156.131" rx="4.26434" transform="rotate(-131.44 82.4066 176.623)" fill="#F99D1D" stroke="#F99D1D" stroke-width="1.5"/>
<rect x="92.0852" y="75.8936" width="7.27188" height="128.481" rx="3.63594" transform="rotate(-41.4402 92.0852 75.8936)" fill="#F99D1D" stroke="#F99D1D" stroke-width="1.5"/>
<rect x="75.5169" y="137.569" width="7.27188" height="128.481" rx="3.63594" transform="rotate(-101.44 75.5169 137.569)" fill="#F99D1D" stroke="#F99D1D" stroke-width="1.5"/>
<rect x="120.759" y="183.321" width="7.27188" height="128.481" rx="3.63594" transform="rotate(-161.44 120.759 183.321)" fill="#F99D1D" stroke="#F99D1D" stroke-width="1.5"/>
<circle cx="93.1671" cy="46.5433" r="6.0215" transform="rotate(-29.986 93.1671 46.5433)" fill="#B43092" stroke="#B43092" stroke-width="1.5"/>
<circle cx="180.988" cy="198.74" r="6.0215" transform="rotate(-29.986 180.988 198.74)" fill="#B43092" stroke="#B43092" stroke-width="1.5"/>
<rect x="94.3676" y="57.1568" width="8.52867" height="156.131" rx="4.26434" transform="rotate(-29.986 94.3676 57.1568)" fill="#B43092" stroke="#B43092" stroke-width="1.5"/>
<circle cx="49.8272" cy="122.269" r="6.0215" transform="rotate(-89.986 49.8272 122.269)" fill="#B43092" stroke="#B43092" stroke-width="1.5"/>
<circle cx="225.544" cy="122.312" r="6.0215" transform="rotate(-89.986 225.544 122.312)" fill="#B43092" stroke="#B43092" stroke-width="1.5"/>
<rect x="59.6192" y="126.536" width="8.52867" height="156.131" rx="4.26434" transform="rotate(-89.986 59.6192 126.536)" fill="#B43092" stroke="#B43092" stroke-width="1.5"/>
<circle cx="93.7375" cy="198.368" r="6.0215" transform="rotate(-149.986 93.7375 198.368)" fill="#B43092" stroke="#B43092" stroke-width="1.5"/>
<circle cx="181.633" cy="46.2141" r="6.0215" transform="rotate(-149.986 181.633 46.2141)" fill="#B43092" stroke="#B43092" stroke-width="1.5"/>
<rect x="102.329" y="192.021" width="8.52867" height="156.131" rx="4.26434" transform="rotate(-149.986 102.329 192.021)" fill="#B43092" stroke="#B43092" stroke-width="1.5"/>
<rect x="79.4666" y="93.4441" width="7.27188" height="128.481" rx="3.63594" transform="rotate(-59.986 79.4666 93.4441)" fill="#B43092" stroke="#B43092" stroke-width="1.5"/>
<rect x="83.3754" y="157.187" width="7.27188" height="128.481" rx="3.63594" transform="rotate(-119.986 83.3754 157.187)" fill="#B43092" stroke="#B43092" stroke-width="1.5"/>
<rect x="140.82" y="186.172" width="7.27188" height="128.481" rx="3.63594" transform="rotate(-179.986 140.82 186.172)" fill="#B43092" stroke="#B43092" stroke-width="1.5"/>
<circle cx="138" cy="122" r="43" fill="#B43092"/>
<circle cx="138" cy="122" r="33" fill="white"/>
<path d="M155.733 117.273C159.218 119.102 159.321 124.055 155.916 126.027L133.093 139.246C129.8 141.154 125.668 138.829 125.588 135.024L125.057 109.549C124.977 105.744 129.009 103.249 132.379 105.017L155.733 117.273Z" fill="#101010"/>
<path d="M14.0625 253.438L10.5625 287H2.90625L10.5625 242H21.9062L32.4375 276.344L43.0938 242H54.4375L60.8125 287H48.1875L44.4688 254.312L35.6875 287H24.3438L14.0625 253.438ZM81.5312 242C80.9688 243.688 80.4792 245.438 80.0625 247.25C79.6458 249.042 79.3021 250.844 79.0312 252.656C78.7604 254.448 78.5521 256.219 78.4062 257.969C78.2812 259.719 78.2188 261.375 78.2188 262.938C78.2188 264.083 78.2188 265.375 78.2188 266.812C78.2396 268.229 78.3229 269.677 78.4688 271.156C78.6354 272.635 78.8958 274.083 79.25 275.5C79.6042 276.896 80.125 278.146 80.8125 279.25C81.5208 280.354 82.4167 281.24 83.5 281.906C84.6042 282.573 85.9688 282.906 87.5938 282.906C89.0312 282.906 90.2604 282.667 91.2812 282.188C92.3229 281.688 93.1979 281.021 93.9062 280.188C94.6354 279.354 95.2083 278.396 95.625 277.312C96.0625 276.229 96.3958 275.094 96.625 273.906C96.875 272.719 97.0312 271.521 97.0938 270.312C97.1771 269.083 97.2188 267.917 97.2188 266.812V242H109.625V264.875C109.625 268.146 109.104 271.188 108.062 274C107.021 276.812 105.552 279.26 103.656 281.344C101.76 283.406 99.4688 285.031 96.7812 286.219C94.0938 287.385 91.1146 287.969 87.8438 287.969C85.5938 287.969 83.5 287.646 81.5625 287C79.625 286.375 77.8438 285.51 76.2188 284.406C74.6146 283.281 73.1771 281.958 71.9062 280.438C70.6562 278.896 69.6042 277.219 68.75 275.406C67.9167 273.594 67.2812 271.688 66.8438 269.688C66.4062 267.667 66.2083 265.625 66.25 263.562V262.938C66.2708 261.271 66.4375 259.552 66.75 257.781C67.0625 255.99 67.4792 254.198 68 252.406C68.5417 250.615 69.1875 248.844 69.9375 247.094C70.6875 245.323 71.5208 243.625 72.4375 242H81.5312ZM156.156 273.25C156.156 275.188 155.906 276.896 155.406 278.375C154.927 279.854 154.24 281.135 153.344 282.219C152.469 283.302 151.427 284.208 150.219 284.938C149.01 285.667 147.688 286.25 146.25 286.688C144.833 287.125 143.323 287.438 141.719 287.625C140.135 287.812 138.521 287.906 136.875 287.906C134.708 287.906 132.708 287.74 130.875 287.406C129.042 287.094 127.312 286.594 125.688 285.906C124.083 285.198 122.531 284.292 121.031 283.188C119.552 282.083 118.073 280.74 116.594 279.156L122.969 272.688C123.552 274.125 124.354 275.458 125.375 276.688C126.396 277.896 127.51 278.938 128.719 279.812C129.948 280.688 131.219 281.375 132.531 281.875C133.844 282.375 135.083 282.625 136.25 282.625C137.625 282.625 138.917 282.531 140.125 282.344C141.333 282.135 142.385 281.802 143.281 281.344C144.177 280.885 144.875 280.281 145.375 279.531C145.896 278.76 146.156 277.802 146.156 276.656C146.156 275.781 145.958 275.031 145.562 274.406C145.167 273.781 144.646 273.25 144 272.812C143.375 272.354 142.656 271.969 141.844 271.656C141.031 271.344 140.198 271.083 139.344 270.875C138.51 270.646 137.688 270.448 136.875 270.281C136.062 270.094 135.344 269.906 134.719 269.719C133.49 269.365 132.208 268.99 130.875 268.594C129.542 268.177 128.229 267.708 126.938 267.188C125.646 266.667 124.417 266.073 123.25 265.406C122.104 264.719 121.094 263.917 120.219 263C119.344 262.062 118.646 260.99 118.125 259.781C117.604 258.552 117.344 257.146 117.344 255.562C117.344 253.667 117.573 251.99 118.031 250.531C118.51 249.052 119.177 247.771 120.031 246.688C120.885 245.604 121.896 244.698 123.062 243.969C124.229 243.219 125.51 242.625 126.906 242.188C128.302 241.729 129.781 241.406 131.344 241.219C132.927 241.01 134.542 240.906 136.188 240.906C138.438 240.906 140.479 241.115 142.312 241.531C144.167 241.948 145.875 242.542 147.438 243.312C149 244.083 150.427 245.01 151.719 246.094C153.031 247.156 154.26 248.344 155.406 249.656L149.031 256.125C148.531 254.625 147.833 253.271 146.938 252.062C146.062 250.854 145.083 249.823 144 248.969C142.917 248.094 141.781 247.427 140.594 246.969C139.406 246.49 138.26 246.25 137.156 246.25C135.719 246.25 134.396 246.354 133.188 246.562C131.979 246.75 130.938 247.073 130.062 247.531C129.208 247.969 128.542 248.573 128.062 249.344C127.583 250.094 127.344 251.031 127.344 252.156C127.344 253.052 127.521 253.812 127.875 254.438C128.229 255.062 128.698 255.594 129.281 256.031C129.885 256.469 130.562 256.833 131.312 257.125C132.062 257.396 132.833 257.635 133.625 257.844C134.438 258.052 135.229 258.24 136 258.406C136.792 258.552 137.51 258.719 138.156 258.906C139.406 259.26 140.719 259.635 142.094 260.031C143.469 260.427 144.823 260.896 146.156 261.438C147.49 261.958 148.76 262.562 149.969 263.25C151.177 263.938 152.24 264.76 153.156 265.719C154.073 266.656 154.802 267.75 155.344 269C155.885 270.229 156.156 271.646 156.156 273.25ZM176.312 287H163.906V242H176.312V287ZM224.594 287H211.938L201.375 271.219L190.562 287H181.812L198.062 266.312L181.812 242H194.469L204.688 257.281L215.844 242H224.594L208 262.219L224.594 287ZM272.812 265.469V266.062C272.771 267.812 272.583 269.625 272.25 271.5C271.938 273.375 271.49 275.25 270.906 277.125C270.323 279 269.625 280.854 268.812 282.688C268 284.521 267.083 286.271 266.062 287.938C265.062 289.625 263.979 291.198 262.812 292.656C261.646 294.135 260.417 295.438 259.125 296.562L254.469 293.875C255.198 292.646 255.854 291.302 256.438 289.844C257.042 288.406 257.583 286.896 258.062 285.312C258.542 283.729 258.948 282.104 259.281 280.438C259.635 278.771 259.927 277.115 260.156 275.469C260.385 273.823 260.552 272.208 260.656 270.625C260.781 269.021 260.844 267.5 260.844 266.062C260.844 264.938 260.833 263.667 260.812 262.25C260.812 260.812 260.729 259.354 260.562 257.875C260.417 256.396 260.167 254.958 259.812 253.562C259.458 252.146 258.927 250.885 258.219 249.781C257.531 248.677 256.635 247.792 255.531 247.125C254.448 246.458 253.094 246.125 251.469 246.125C250.031 246.125 248.792 246.375 247.75 246.875C246.729 247.354 245.854 248.01 245.125 248.844C244.417 249.656 243.844 250.604 243.406 251.688C242.99 252.771 242.656 253.917 242.406 255.125C242.177 256.312 242.021 257.521 241.938 258.75C241.875 259.958 241.844 261.104 241.844 262.188V270.906H255.312V276.062H241.844V287H229.438V264.125C229.438 260.854 229.958 257.812 231 255C232.042 252.188 233.51 249.75 235.406 247.688C237.323 245.604 239.615 243.979 242.281 242.812C244.969 241.625 247.958 241.031 251.25 241.031C253.479 241.031 255.562 241.354 257.5 242C259.458 242.625 261.24 243.5 262.844 244.625C264.448 245.729 265.875 247.052 267.125 248.594C268.396 250.115 269.448 251.781 270.281 253.594C271.135 255.406 271.781 257.323 272.219 259.344C272.656 261.365 272.854 263.406 272.812 265.469Z" fill="white"/>
</svg>
