<svg width="303" height="61" viewBox="0 0 303 61" fill="none" xmlns="http://www.w3.org/2000/svg">
<path d="M100.547 27.8281L97.9219 53H92.1797L97.9219 19.25H106.43L114.328 45.0078L122.32 19.25H130.828L135.609 53H126.141L123.352 28.4844L116.766 53H108.258L100.547 27.8281ZM151.148 19.25C150.727 20.5156 150.359 21.8281 150.047 23.1875C149.734 24.5312 149.477 25.8828 149.273 27.2422C149.07 28.5859 148.914 29.9141 148.805 31.2266C148.711 32.5391 148.664 33.7812 148.664 34.9531C148.664 35.8125 148.664 36.7812 148.664 37.8594C148.68 38.9219 148.742 40.0078 148.852 41.1172C148.977 42.2266 149.172 43.3125 149.438 44.375C149.703 45.4219 150.094 46.3594 150.609 47.1875C151.141 48.0156 151.812 48.6797 152.625 49.1797C153.453 49.6797 154.477 49.9297 155.695 49.9297C156.773 49.9297 157.695 49.75 158.461 49.3906C159.242 49.0156 159.898 48.5156 160.43 47.8906C160.977 47.2656 161.406 46.5469 161.719 45.7344C162.047 44.9219 162.297 44.0703 162.469 43.1797C162.656 42.2891 162.773 41.3906 162.82 40.4844C162.883 39.5625 162.914 38.6875 162.914 37.8594V19.25H172.219V36.4062C172.219 38.8594 171.828 41.1406 171.047 43.25C170.266 45.3594 169.164 47.1953 167.742 48.7578C166.32 50.3047 164.602 51.5234 162.586 52.4141C160.57 53.2891 158.336 53.7266 155.883 53.7266C154.195 53.7266 152.625 53.4844 151.172 53C149.719 52.5312 148.383 51.8828 147.164 51.0547C145.961 50.2109 144.883 49.2188 143.93 48.0781C142.992 46.9219 142.203 45.6641 141.562 44.3047C140.938 42.9453 140.461 41.5156 140.133 40.0156C139.805 38.5 139.656 36.9688 139.688 35.4219V34.9531C139.703 33.7031 139.828 32.4141 140.062 31.0859C140.297 29.7422 140.609 28.3984 141 27.0547C141.406 25.7109 141.891 24.3828 142.453 23.0703C143.016 21.7422 143.641 20.4688 144.328 19.25H151.148ZM207.117 42.6875C207.117 44.1406 206.93 45.4219 206.555 46.5312C206.195 47.6406 205.68 48.6016 205.008 49.4141C204.352 50.2266 203.57 50.9062 202.664 51.4531C201.758 52 200.766 52.4375 199.688 52.7656C198.625 53.0938 197.492 53.3281 196.289 53.4688C195.102 53.6094 193.891 53.6797 192.656 53.6797C191.031 53.6797 189.531 53.5547 188.156 53.3047C186.781 53.0703 185.484 52.6953 184.266 52.1797C183.062 51.6484 181.898 50.9688 180.773 50.1406C179.664 49.3125 178.555 48.3047 177.445 47.1172L182.227 42.2656C182.664 43.3438 183.266 44.3438 184.031 45.2656C184.797 46.1719 185.633 46.9531 186.539 47.6094C187.461 48.2656 188.414 48.7812 189.398 49.1562C190.383 49.5312 191.312 49.7188 192.188 49.7188C193.219 49.7188 194.188 49.6484 195.094 49.5078C196 49.3516 196.789 49.1016 197.461 48.7578C198.133 48.4141 198.656 47.9609 199.031 47.3984C199.422 46.8203 199.617 46.1016 199.617 45.2422C199.617 44.5859 199.469 44.0234 199.172 43.5547C198.875 43.0859 198.484 42.6875 198 42.3594C197.531 42.0156 196.992 41.7266 196.383 41.4922C195.773 41.2578 195.148 41.0625 194.508 40.9062C193.883 40.7344 193.266 40.5859 192.656 40.4609C192.047 40.3203 191.508 40.1797 191.039 40.0391C190.117 39.7734 189.156 39.4922 188.156 39.1953C187.156 38.8828 186.172 38.5312 185.203 38.1406C184.234 37.75 183.312 37.3047 182.438 36.8047C181.578 36.2891 180.82 35.6875 180.164 35C179.508 34.2969 178.984 33.4922 178.594 32.5859C178.203 31.6641 178.008 30.6094 178.008 29.4219C178.008 28 178.18 26.7422 178.523 25.6484C178.883 24.5391 179.383 23.5781 180.023 22.7656C180.664 21.9531 181.422 21.2734 182.297 20.7266C183.172 20.1641 184.133 19.7188 185.18 19.3906C186.227 19.0469 187.336 18.8047 188.508 18.6641C189.695 18.5078 190.906 18.4297 192.141 18.4297C193.828 18.4297 195.359 18.5859 196.734 18.8984C198.125 19.2109 199.406 19.6562 200.578 20.2344C201.75 20.8125 202.82 21.5078 203.789 22.3203C204.773 23.1172 205.695 24.0078 206.555 24.9922L201.773 29.8438C201.398 28.7188 200.875 27.7031 200.203 26.7969C199.547 25.8906 198.812 25.1172 198 24.4766C197.188 23.8203 196.336 23.3203 195.445 22.9766C194.555 22.6172 193.695 22.4375 192.867 22.4375C191.789 22.4375 190.797 22.5156 189.891 22.6719C188.984 22.8125 188.203 23.0547 187.547 23.3984C186.906 23.7266 186.406 24.1797 186.047 24.7578C185.688 25.3203 185.508 26.0234 185.508 26.8672C185.508 27.5391 185.641 28.1094 185.906 28.5781C186.172 29.0469 186.523 29.4453 186.961 29.7734C187.414 30.1016 187.922 30.375 188.484 30.5938C189.047 30.7969 189.625 30.9766 190.219 31.1328C190.828 31.2891 191.422 31.4297 192 31.5547C192.594 31.6641 193.133 31.7891 193.617 31.9297C194.555 32.1953 195.539 32.4766 196.57 32.7734C197.602 33.0703 198.617 33.4219 199.617 33.8281C200.617 34.2188 201.57 34.6719 202.477 35.1875C203.383 35.7031 204.18 36.3203 204.867 37.0391C205.555 37.7422 206.102 38.5625 206.508 39.5C206.914 40.4219 207.117 41.4844 207.117 42.6875ZM222.234 53H212.93V19.25H222.234V53ZM258.445 53H248.953L241.031 41.1641L232.922 53H226.359L238.547 37.4844L226.359 19.25H235.852L243.516 30.7109L251.883 19.25H258.445L246 34.4141L258.445 53ZM294.609 36.8516V37.2969C294.578 38.6094 294.438 39.9688 294.188 41.375C293.953 42.7812 293.617 44.1875 293.18 45.5938C292.742 47 292.219 48.3906 291.609 49.7656C291 51.1406 290.312 52.4531 289.547 53.7031C288.797 54.9688 287.984 56.1484 287.109 57.2422C286.234 58.3516 285.312 59.3281 284.344 60.1719L280.852 58.1562C281.398 57.2344 281.891 56.2266 282.328 55.1328C282.781 54.0547 283.188 52.9219 283.547 51.7344C283.906 50.5469 284.211 49.3281 284.461 48.0781C284.727 46.8281 284.945 45.5859 285.117 44.3516C285.289 43.1172 285.414 41.9062 285.492 40.7188C285.586 39.5156 285.633 38.375 285.633 37.2969C285.633 36.4531 285.625 35.5 285.609 34.4375C285.609 33.3594 285.547 32.2656 285.422 31.1562C285.312 30.0469 285.125 28.9688 284.859 27.9219C284.594 26.8594 284.195 25.9141 283.664 25.0859C283.148 24.2578 282.477 23.5938 281.648 23.0938C280.836 22.5938 279.82 22.3438 278.602 22.3438C277.523 22.3438 276.594 22.5312 275.812 22.9062C275.047 23.2656 274.391 23.7578 273.844 24.3828C273.312 24.9922 272.883 25.7031 272.555 26.5156C272.242 27.3281 271.992 28.1875 271.805 29.0938C271.633 29.9844 271.516 30.8906 271.453 31.8125C271.406 32.7188 271.383 33.5781 271.383 34.3906V40.9297H281.484V44.7969H271.383V53H262.078V35.8438C262.078 33.3906 262.469 31.1094 263.25 29C264.031 26.8906 265.133 25.0625 266.555 23.5156C267.992 21.9531 269.711 20.7344 271.711 19.8594C273.727 18.9688 275.969 18.5234 278.438 18.5234C280.109 18.5234 281.672 18.7656 283.125 19.25C284.594 19.7188 285.93 20.375 287.133 21.2188C288.336 22.0469 289.406 23.0391 290.344 24.1953C291.297 25.3359 292.086 26.5859 292.711 27.9453C293.352 29.3047 293.836 30.7422 294.164 32.2578C294.492 33.7734 294.641 35.3047 294.609 36.8516Z" fill="white"/>
<path fill-rule="evenodd" clip-rule="evenodd" d="M32.6324 7.0718V24.6002C30.3525 23.6553 27.4424 23.481 24.4988 24.3045C18.8388 25.8878 15.1985 30.5602 16.368 34.7405C17.5374 38.9209 23.0737 41.0261 28.7336 39.4428C33.9484 37.984 37.4488 33.9029 37.0525 30.0005H37.1324V8.04656C46.3868 11.051 53.0772 19.7443 53.0772 30.0003C53.0772 42.7453 42.7453 53.0772 30.0003 53.0772C17.2552 53.0772 6.92334 42.7453 6.92334 30.0003C6.92334 17.2552 17.2552 6.92334 30.0003 6.92334C30.8903 6.92334 31.7686 6.97373 32.6324 7.0718Z" fill="#FF544C"/>
<mask id="path-3-inside-1_49_21" fill="white">
<path fill-rule="evenodd" clip-rule="evenodd" d="M32.6997 0.119828C31.8104 0.040511 30.9099 0 30 0C13.4315 0 0 13.4315 0 30C0 46.5685 13.4315 60 30 60C46.5685 60 60 46.5685 60 30C60 15.9133 50.291 4.09422 37.1997 0.869503V1.90073C49.7331 5.10252 59 16.4691 59 30C59 46.0163 46.0163 59 30 59C13.9837 59 1 46.0163 1 30C1 13.9837 13.9837 1 30 1C30.9103 1 31.8108 1.04194 32.6997 1.124V0.119828Z"/>
</mask>
<path d="M32.6997 0.119828H33.6997V-0.794952L32.7885 -0.876218L32.6997 0.119828ZM37.1997 0.869503L37.4389 -0.101473L36.1997 -0.406713V0.869503H37.1997ZM37.1997 1.90073H36.1997V2.67738L36.9522 2.86962L37.1997 1.90073ZM32.6997 1.124L32.6078 2.11977L33.6997 2.22057V1.124H32.6997ZM32.7885 -0.876218C31.8697 -0.958166 30.9396 -1 30 -1V1C30.8802 1 31.7511 1.03919 32.6109 1.11587L32.7885 -0.876218ZM30 -1C12.8792 -1 -1 12.8792 -1 30H1C1 13.9837 13.9837 1 30 1V-1ZM-1 30C-1 47.1208 12.8792 61 30 61V59C13.9837 59 1 46.0163 1 30H-1ZM30 61C47.1208 61 61 47.1208 61 30H59C59 46.0163 46.0163 59 30 59V61ZM61 30C61 15.4424 50.9665 3.23071 37.4389 -0.101473L36.9605 1.84048C49.6155 4.95772 59 16.3842 59 30H61ZM36.1997 0.869503V1.90073H38.1997V0.869503H36.1997ZM60 30C60 16.0011 50.4126 4.24399 37.4472 0.931846L36.9522 2.86962C49.0536 5.96104 58 16.937 58 30H60ZM30 60C46.5685 60 60 46.5685 60 30H58C58 45.464 45.464 58 30 58V60ZM0 30C0 46.5685 13.4315 60 30 60V58C14.536 58 2 45.464 2 30H0ZM30 0C13.4315 0 0 13.4315 0 30H2C2 14.536 14.536 2 30 2V0ZM32.7916 0.128234C31.8722 0.0433593 30.941 0 30 0V2C30.8796 2 31.7494 2.04053 32.6078 2.11977L32.7916 0.128234ZM33.6997 1.124V0.119828H31.6997V1.124H33.6997Z" fill="white" mask="url(#path-3-inside-1_49_21)"/>
</svg>
